<svg width="1438" height="827" viewBox="0 0 1438 827" fill="none" xmlns="http://www.w3.org/2000/svg">
<circle cx="529" cy="485" r="3" fill="#D9D9D9"/>
<circle cx="565" cy="498" r="3" fill="#D9D9D9"/>
<circle cx="3" cy="808" r="3" fill="#D9D9D9"/>
<circle cx="501" cy="820" r="3" fill="#D9D9D9"/>
<circle cx="909" cy="701" r="3" fill="#D9D9D9"/>
<circle cx="193" cy="517" r="3" fill="#D9D9D9"/>
<circle cx="529" cy="545" r="3" fill="#D9D9D9"/>
<circle cx="55" cy="272" r="3" fill="#D9D9D9"/>
<circle cx="1015" cy="223" r="3" fill="#D9D9D9"/>
<circle cx="670" cy="202" r="3" fill="#D9D9D9"/>
<circle cx="497" cy="526" r="3" fill="#D9D9D9"/>
<circle cx="709" cy="456" r="3" fill="#D9D9D9"/>
<circle cx="147" cy="766" r="3" fill="#D9D9D9"/>
<circle cx="645" cy="778" r="3" fill="#D9D9D9"/>
<circle cx="1053" cy="659" r="3" fill="#D9D9D9"/>
<circle cx="337" cy="475" r="3" fill="#D9D9D9"/>
<circle cx="673" cy="503" r="3" fill="#D9D9D9"/>
<circle cx="1159" cy="181" r="3" fill="#D9D9D9"/>
<circle cx="814" cy="160" r="3" fill="#D9D9D9"/>
<circle cx="598" cy="483" r="2" fill="#D9D9D9"/>
<circle cx="36" cy="793" r="2" fill="#D9D9D9"/>
<circle cx="534" cy="805" r="2" fill="#D9D9D9"/>
<circle cx="942" cy="686" r="2" fill="#D9D9D9"/>
<circle cx="226" cy="502" r="2" fill="#D9D9D9"/>
<circle cx="562" cy="530" r="2" fill="#D9D9D9"/>
<circle cx="88" cy="257" r="2" fill="#D9D9D9"/>
<circle cx="1048" cy="208" r="2" fill="#D9D9D9"/>
<circle cx="703" cy="187" r="2" fill="#D9D9D9"/>
<circle cx="683" cy="473" r="2" fill="#D9D9D9"/>
<circle cx="121" cy="783" r="2" fill="#D9D9D9"/>
<circle cx="619" cy="795" r="2" fill="#D9D9D9"/>
<circle cx="1027" cy="676" r="2" fill="#D9D9D9"/>
<circle cx="311" cy="492" r="2" fill="#D9D9D9"/>
<circle cx="647" cy="520" r="2" fill="#D9D9D9"/>
<circle cx="173" cy="247" r="2" fill="#D9D9D9"/>
<circle cx="1133" cy="198" r="2" fill="#D9D9D9"/>
<circle cx="788" cy="177" r="2" fill="#D9D9D9"/>
<circle cx="198" cy="111" r="3" fill="#D9D9D9"/>
<circle cx="64" cy="346" r="3" fill="#D9D9D9"/>
<circle cx="426" cy="177" r="3" fill="#D9D9D9"/>
<circle cx="352" cy="277" r="3" fill="#D9D9D9"/>
<circle cx="755" cy="173" r="3" fill="#D9D9D9"/>
<circle cx="635" cy="269" r="3" fill="#D9D9D9"/>
<circle cx="73" cy="579" r="3" fill="#D9D9D9"/>
<circle cx="571" cy="591" r="3" fill="#D9D9D9"/>
<circle cx="979" cy="472" r="3" fill="#D9D9D9"/>
<circle cx="911" cy="691" r="3" fill="#D9D9D9"/>
<circle cx="263" cy="288" r="3" fill="#D9D9D9"/>
<circle cx="599" cy="316" r="3" fill="#D9D9D9"/>
<circle cx="125" cy="43" r="3" fill="#D9D9D9"/>
<circle cx="292" cy="405" r="3" fill="#D9D9D9"/>
<circle cx="164.298" cy="424.233" r="3" transform="rotate(41.0935 164.298 424.233)" fill="#D9D9D9"/>
<circle cx="136.298" cy="523.233" r="3" transform="rotate(41.0935 136.298 523.233)" fill="#D9D9D9"/>
<circle cx="772.298" cy="353.233" r="3" transform="rotate(41.0935 772.298 353.233)" fill="#D9D9D9"/>
<circle cx="210.298" cy="663.233" r="3" transform="rotate(41.0935 210.298 663.233)" fill="#D9D9D9"/>
<circle cx="708.298" cy="675.233" r="3" transform="rotate(41.0935 708.298 675.233)" fill="#D9D9D9"/>
<circle cx="1116.3" cy="556.233" r="3" transform="rotate(41.0935 1116.3 556.233)" fill="#D9D9D9"/>
<circle cx="1048.3" cy="775.233" r="3" transform="rotate(41.0935 1048.3 775.233)" fill="#D9D9D9"/>
<circle cx="400.298" cy="372.233" r="3" transform="rotate(41.0935 400.298 372.233)" fill="#D9D9D9"/>
<circle cx="736.298" cy="400.233" r="3" transform="rotate(41.0935 736.298 400.233)" fill="#D9D9D9"/>
<circle cx="262.298" cy="127.233" r="3" transform="rotate(41.0935 262.298 127.233)" fill="#D9D9D9"/>
<circle cx="1222.3" cy="78.2328" r="3" transform="rotate(41.0935 1222.3 78.2328)" fill="#D9D9D9"/>
<circle cx="877.298" cy="57.2328" r="3" transform="rotate(41.0935 877.298 57.2328)" fill="#D9D9D9"/>
<circle cx="1128.3" cy="115.233" r="3" transform="rotate(41.0935 1128.3 115.233)" fill="#D9D9D9"/>
<circle cx="1046.3" cy="184.233" r="3" transform="rotate(41.0935 1046.3 184.233)" fill="#D9D9D9"/>
<circle cx="939.298" cy="242.233" r="3" transform="rotate(41.0935 939.298 242.233)" fill="#D9D9D9"/>
<circle cx="911.298" cy="352.233" r="3" transform="rotate(41.0935 911.298 352.233)" fill="#D9D9D9"/>
<circle cx="349.298" cy="662.233" r="3" transform="rotate(41.0935 349.298 662.233)" fill="#D9D9D9"/>
<circle cx="847.298" cy="674.233" r="3" transform="rotate(41.0935 847.298 674.233)" fill="#D9D9D9"/>
<circle cx="1255.3" cy="555.233" r="3" transform="rotate(41.0935 1255.3 555.233)" fill="#D9D9D9"/>
<circle cx="1187.3" cy="774.233" r="3" transform="rotate(41.0935 1187.3 774.233)" fill="#D9D9D9"/>
<circle cx="539.298" cy="371.233" r="3" transform="rotate(41.0935 539.298 371.233)" fill="#D9D9D9"/>
<circle cx="875.298" cy="399.233" r="3" transform="rotate(41.0935 875.298 399.233)" fill="#D9D9D9"/>
<circle cx="401.298" cy="126.233" r="3" transform="rotate(41.0935 401.298 126.233)" fill="#D9D9D9"/>
<circle cx="1361.3" cy="77.2328" r="3" transform="rotate(41.0935 1361.3 77.2328)" fill="#D9D9D9"/>
<circle cx="1016.3" cy="56.2328" r="3" transform="rotate(41.0935 1016.3 56.2328)" fill="#D9D9D9"/>
<circle cx="1279.3" cy="267.233" r="3" transform="rotate(41.0935 1279.3 267.233)" fill="#D9D9D9"/>
<circle cx="1188.3" cy="353.233" r="3" transform="rotate(41.0935 1188.3 353.233)" fill="#D9D9D9"/>
<circle cx="1228.3" cy="446.233" r="3" transform="rotate(41.0935 1228.3 446.233)" fill="#D9D9D9"/>
<circle cx="867.298" cy="507.233" r="3" transform="rotate(41.0935 867.298 507.233)" fill="#D9D9D9"/>
<circle cx="305.298" cy="817.233" r="3" transform="rotate(41.0935 305.298 817.233)" fill="#D9D9D9"/>
<circle cx="803.298" cy="829.233" r="3" transform="rotate(41.0935 803.298 829.233)" fill="#D9D9D9"/>
<circle cx="1211.3" cy="710.233" r="3" transform="rotate(41.0935 1211.3 710.233)" fill="#D9D9D9"/>
<circle cx="495.298" cy="526.233" r="3" transform="rotate(41.0935 495.298 526.233)" fill="#D9D9D9"/>
<circle cx="831.298" cy="554.233" r="3" transform="rotate(41.0935 831.298 554.233)" fill="#D9D9D9"/>
<circle cx="357.298" cy="281.233" r="3" transform="rotate(41.0935 357.298 281.233)" fill="#D9D9D9"/>
<circle cx="1317.3" cy="232.233" r="3" transform="rotate(41.0935 1317.3 232.233)" fill="#D9D9D9"/>
<circle cx="972.298" cy="211.233" r="3" transform="rotate(41.0935 972.298 211.233)" fill="#D9D9D9"/>
<circle cx="723.298" cy="570.233" r="3" transform="rotate(41.0935 723.298 570.233)" fill="#D9D9D9"/>
<circle cx="1067.3" cy="773.233" r="3" transform="rotate(41.0935 1067.3 773.233)" fill="#D9D9D9"/>
<circle cx="351.298" cy="589.233" r="3" transform="rotate(41.0935 351.298 589.233)" fill="#D9D9D9"/>
<circle cx="687.298" cy="617.233" r="3" transform="rotate(41.0935 687.298 617.233)" fill="#D9D9D9"/>
<circle cx="213.298" cy="344.233" r="3" transform="rotate(41.0935 213.298 344.233)" fill="#D9D9D9"/>
<circle cx="1173.3" cy="295.233" r="3" transform="rotate(41.0935 1173.3 295.233)" fill="#D9D9D9"/>
<circle cx="828.298" cy="274.233" r="3" transform="rotate(41.0935 828.298 274.233)" fill="#D9D9D9"/>
<circle cx="234" cy="124" r="3" fill="#D9D9D9"/>
<circle cx="141" cy="238" r="3" fill="#D9D9D9"/>
<circle cx="100" cy="359" r="3" fill="#D9D9D9"/>
<circle cx="462" cy="190" r="3" fill="#D9D9D9"/>
<circle cx="388" cy="290" r="3" fill="#D9D9D9"/>
<circle cx="791" cy="186" r="3" fill="#D9D9D9"/>
<circle cx="182.884" cy="457.693" r="3" transform="rotate(41.0935 182.884 457.693)" fill="#D9D9D9"/>
<circle cx="671" cy="282" r="3" fill="#D9D9D9"/>
<circle cx="109" cy="592" r="3" fill="#D9D9D9"/>
<circle cx="607" cy="604" r="3" fill="#D9D9D9"/>
<circle cx="1015" cy="485" r="3" fill="#D9D9D9"/>
<circle cx="947" cy="704" r="3" fill="#D9D9D9"/>
<circle cx="299" cy="301" r="3" fill="#D9D9D9"/>
<circle cx="635" cy="329" r="3" fill="#D9D9D9"/>
<circle cx="161" cy="56" r="3" fill="#D9D9D9"/>
<circle cx="1121" cy="7" r="3" fill="#D9D9D9"/>
<circle cx="154.884" cy="556.693" r="3" transform="rotate(41.0935 154.884 556.693)" fill="#D9D9D9"/>
<circle cx="790.884" cy="386.693" r="3" transform="rotate(41.0935 790.884 386.693)" fill="#D9D9D9"/>
<circle cx="228.884" cy="696.693" r="3" transform="rotate(41.0935 228.884 696.693)" fill="#D9D9D9"/>
<circle cx="726.884" cy="708.693" r="3" transform="rotate(41.0935 726.884 708.693)" fill="#D9D9D9"/>
<circle cx="1134.88" cy="589.693" r="3" transform="rotate(41.0935 1134.88 589.693)" fill="#D9D9D9"/>
<circle cx="1066.88" cy="808.693" r="3" transform="rotate(41.0935 1066.88 808.693)" fill="#D9D9D9"/>
<circle cx="418.884" cy="405.693" r="3" transform="rotate(41.0935 418.884 405.693)" fill="#D9D9D9"/>
<circle cx="754.884" cy="433.693" r="3" transform="rotate(41.0935 754.884 433.693)" fill="#D9D9D9"/>
<circle cx="280.884" cy="160.693" r="3" transform="rotate(41.0935 280.884 160.693)" fill="#D9D9D9"/>
<circle cx="1240.88" cy="111.692" r="3" transform="rotate(41.0935 1240.88 111.692)" fill="#D9D9D9"/>
<circle cx="895.884" cy="90.6925" r="3" transform="rotate(41.0935 895.884 90.6925)" fill="#D9D9D9"/>
<circle cx="1146.88" cy="148.693" r="3" transform="rotate(41.0935 1146.88 148.693)" fill="#D9D9D9"/>
<circle cx="1064.88" cy="217.693" r="3" transform="rotate(41.0935 1064.88 217.693)" fill="#D9D9D9"/>
<circle cx="957.884" cy="275.693" r="3" transform="rotate(41.0935 957.884 275.693)" fill="#D9D9D9"/>
<circle cx="395.884" cy="585.693" r="3" transform="rotate(41.0935 395.884 585.693)" fill="#D9D9D9"/>
<circle cx="893.884" cy="597.693" r="3" transform="rotate(41.0935 893.884 597.693)" fill="#D9D9D9"/>
<circle cx="1301.88" cy="478.693" r="3" transform="rotate(41.0935 1301.88 478.693)" fill="#D9D9D9"/>
<circle cx="1233.88" cy="697.693" r="3" transform="rotate(41.0935 1233.88 697.693)" fill="#D9D9D9"/>
<circle cx="585.884" cy="294.693" r="3" transform="rotate(41.0935 585.884 294.693)" fill="#D9D9D9"/>
<circle cx="921.884" cy="322.693" r="3" transform="rotate(41.0935 921.884 322.693)" fill="#D9D9D9"/>
<circle cx="447.884" cy="49.6925" r="3" transform="rotate(41.0935 447.884 49.6925)" fill="#D9D9D9"/>
<circle cx="1407.88" cy="0.6925" r="3" transform="rotate(41.0935 1407.88 0.6925)" fill="#D9D9D9"/>
<circle cx="929.884" cy="385.693" r="3" transform="rotate(41.0935 929.884 385.693)" fill="#D9D9D9"/>
<circle cx="367.884" cy="695.693" r="3" transform="rotate(41.0935 367.884 695.693)" fill="#D9D9D9"/>
<circle cx="865.884" cy="707.693" r="3" transform="rotate(41.0935 865.884 707.693)" fill="#D9D9D9"/>
<circle cx="1273.88" cy="588.693" r="3" transform="rotate(41.0935 1273.88 588.693)" fill="#D9D9D9"/>
<circle cx="1205.88" cy="807.693" r="3" transform="rotate(41.0935 1205.88 807.693)" fill="#D9D9D9"/>
<circle cx="557.884" cy="404.693" r="3" transform="rotate(41.0935 557.884 404.693)" fill="#D9D9D9"/>
<circle cx="893.884" cy="432.693" r="3" transform="rotate(41.0935 893.884 432.693)" fill="#D9D9D9"/>
<circle cx="419.884" cy="159.693" r="3" transform="rotate(41.0935 419.884 159.693)" fill="#D9D9D9"/>
<circle cx="1379.88" cy="110.692" r="3" transform="rotate(41.0935 1379.88 110.692)" fill="#D9D9D9"/>
<circle cx="1034.88" cy="89.6925" r="3" transform="rotate(41.0935 1034.88 89.6925)" fill="#D9D9D9"/>
<circle cx="1297.88" cy="300.693" r="3" transform="rotate(41.0935 1297.88 300.693)" fill="#D9D9D9"/>
<circle cx="1206.88" cy="386.693" r="3" transform="rotate(41.0935 1206.88 386.693)" fill="#D9D9D9"/>
<circle cx="1246.88" cy="479.693" r="3" transform="rotate(41.0935 1246.88 479.693)" fill="#D9D9D9"/>
<circle cx="885.884" cy="540.693" r="3" transform="rotate(41.0935 885.884 540.693)" fill="#D9D9D9"/>
<circle cx="1229.88" cy="743.693" r="3" transform="rotate(41.0935 1229.88 743.693)" fill="#D9D9D9"/>
<circle cx="513.884" cy="559.693" r="3" transform="rotate(41.0935 513.884 559.693)" fill="#D9D9D9"/>
<circle cx="849.884" cy="587.693" r="3" transform="rotate(41.0935 849.884 587.693)" fill="#D9D9D9"/>
<circle cx="375.884" cy="314.693" r="3" transform="rotate(41.0935 375.884 314.693)" fill="#D9D9D9"/>
<circle cx="1335.88" cy="265.693" r="3" transform="rotate(41.0935 1335.88 265.693)" fill="#D9D9D9"/>
<circle cx="990.884" cy="244.693" r="3" transform="rotate(41.0935 990.884 244.693)" fill="#D9D9D9"/>
<circle cx="741.884" cy="603.693" r="3" transform="rotate(41.0935 741.884 603.693)" fill="#D9D9D9"/>
<circle cx="1085.88" cy="806.693" r="3" transform="rotate(41.0935 1085.88 806.693)" fill="#D9D9D9"/>
<circle cx="369.884" cy="622.693" r="3" transform="rotate(41.0935 369.884 622.693)" fill="#D9D9D9"/>
<circle cx="705.884" cy="650.693" r="3" transform="rotate(41.0935 705.884 650.693)" fill="#D9D9D9"/>
<circle cx="231.884" cy="377.693" r="3" transform="rotate(41.0935 231.884 377.693)" fill="#D9D9D9"/>
<circle cx="1191.88" cy="328.693" r="3" transform="rotate(41.0935 1191.88 328.693)" fill="#D9D9D9"/>
<circle cx="846.884" cy="307.693" r="3" transform="rotate(41.0935 846.884 307.693)" fill="#D9D9D9"/>
<circle cx="328" cy="418" r="3" fill="#D9D9D9"/>
<circle cx="166" cy="152" r="3" fill="#D9D9D9"/>
<circle cx="73" cy="266" r="3" fill="#D9D9D9"/>
<circle cx="32" cy="387" r="3" fill="#D9D9D9"/>
<circle cx="394" cy="218" r="3" fill="#D9D9D9"/>
<circle cx="113.233" cy="434.099" r="3" transform="rotate(41.0935 113.233 434.099)" fill="#D9D9D9"/>
<circle cx="320" cy="318" r="3" fill="#D9D9D9"/>
<circle cx="723" cy="214" r="3" fill="#D9D9D9"/>
<circle cx="85.2328" cy="533.099" r="3" transform="rotate(41.0935 85.2328 533.099)" fill="#D9D9D9"/>
<circle cx="721.233" cy="363.099" r="3" transform="rotate(41.0935 721.233 363.099)" fill="#D9D9D9"/>
<circle cx="159.233" cy="673.099" r="3" transform="rotate(41.0935 159.233 673.099)" fill="#D9D9D9"/>
<circle cx="657.233" cy="685.099" r="3" transform="rotate(41.0935 657.233 685.099)" fill="#D9D9D9"/>
<circle cx="1065.23" cy="566.099" r="3" transform="rotate(41.0935 1065.23 566.099)" fill="#D9D9D9"/>
<circle cx="997.233" cy="785.099" r="3" transform="rotate(41.0935 997.233 785.099)" fill="#D9D9D9"/>
<circle cx="349.233" cy="382.099" r="3" transform="rotate(41.0935 349.233 382.099)" fill="#D9D9D9"/>
<circle cx="685.233" cy="410.099" r="3" transform="rotate(41.0935 685.233 410.099)" fill="#D9D9D9"/>
<circle cx="211.233" cy="137.099" r="3" transform="rotate(41.0935 211.233 137.099)" fill="#D9D9D9"/>
<circle cx="1171.23" cy="88.0986" r="3" transform="rotate(41.0935 1171.23 88.0986)" fill="#D9D9D9"/>
<circle cx="826.233" cy="67.0986" r="3" transform="rotate(41.0935 826.233 67.0986)" fill="#D9D9D9"/>
<circle cx="1077.23" cy="125.099" r="3" transform="rotate(41.0935 1077.23 125.099)" fill="#D9D9D9"/>
<circle cx="995.233" cy="194.099" r="3" transform="rotate(41.0935 995.233 194.099)" fill="#D9D9D9"/>
<circle cx="888.233" cy="252.099" r="3" transform="rotate(41.0935 888.233 252.099)" fill="#D9D9D9"/>
<circle cx="860.233" cy="362.099" r="3" transform="rotate(41.0935 860.233 362.099)" fill="#D9D9D9"/>
<circle cx="298.233" cy="672.099" r="3" transform="rotate(41.0935 298.233 672.099)" fill="#D9D9D9"/>
<circle cx="796.233" cy="684.099" r="3" transform="rotate(41.0935 796.233 684.099)" fill="#D9D9D9"/>
<circle cx="1204.23" cy="565.099" r="3" transform="rotate(41.0935 1204.23 565.099)" fill="#D9D9D9"/>
<circle cx="1136.23" cy="784.099" r="3" transform="rotate(41.0935 1136.23 784.099)" fill="#D9D9D9"/>
<circle cx="488.233" cy="381.099" r="3" transform="rotate(41.0935 488.233 381.099)" fill="#D9D9D9"/>
<circle cx="824.233" cy="409.099" r="3" transform="rotate(41.0935 824.233 409.099)" fill="#D9D9D9"/>
<circle cx="350.233" cy="136.099" r="3" transform="rotate(41.0935 350.233 136.099)" fill="#D9D9D9"/>
<circle cx="1310.23" cy="87.0986" r="3" transform="rotate(41.0935 1310.23 87.0986)" fill="#D9D9D9"/>
<circle cx="965.233" cy="66.0986" r="3" transform="rotate(41.0935 965.233 66.0986)" fill="#D9D9D9"/>
<circle cx="1228.23" cy="277.099" r="3" transform="rotate(41.0935 1228.23 277.099)" fill="#D9D9D9"/>
<circle cx="1137.23" cy="363.099" r="3" transform="rotate(41.0935 1137.23 363.099)" fill="#D9D9D9"/>
<circle cx="1177.23" cy="456.099" r="3" transform="rotate(41.0935 1177.23 456.099)" fill="#D9D9D9"/>
<circle cx="816.233" cy="517.099" r="3" transform="rotate(41.0935 816.233 517.099)" fill="#D9D9D9"/>
<circle cx="254.233" cy="827.099" r="3" transform="rotate(41.0935 254.233 827.099)" fill="#D9D9D9"/>
<circle cx="1160.23" cy="720.099" r="3" transform="rotate(41.0935 1160.23 720.099)" fill="#D9D9D9"/>
<circle cx="444.233" cy="536.099" r="3" transform="rotate(41.0935 444.233 536.099)" fill="#D9D9D9"/>
<circle cx="780.233" cy="564.099" r="3" transform="rotate(41.0935 780.233 564.099)" fill="#D9D9D9"/>
<circle cx="306.233" cy="291.099" r="3" transform="rotate(41.0935 306.233 291.099)" fill="#D9D9D9"/>
<circle cx="1266.23" cy="242.099" r="3" transform="rotate(41.0935 1266.23 242.099)" fill="#D9D9D9"/>
<circle cx="921.233" cy="221.099" r="3" transform="rotate(41.0935 921.233 221.099)" fill="#D9D9D9"/>
<circle cx="672.233" cy="580.099" r="3" transform="rotate(41.0935 672.233 580.099)" fill="#D9D9D9"/>
<circle cx="1016.23" cy="783.099" r="3" transform="rotate(41.0935 1016.23 783.099)" fill="#D9D9D9"/>
<circle cx="300.233" cy="599.099" r="3" transform="rotate(41.0935 300.233 599.099)" fill="#D9D9D9"/>
<circle cx="636.233" cy="627.099" r="3" transform="rotate(41.0935 636.233 627.099)" fill="#D9D9D9"/>
<circle cx="162.233" cy="354.099" r="3" transform="rotate(41.0935 162.233 354.099)" fill="#D9D9D9"/>
<circle cx="1122.23" cy="305.099" r="3" transform="rotate(41.0935 1122.23 305.099)" fill="#D9D9D9"/>
<circle cx="777.233" cy="284.099" r="3" transform="rotate(41.0935 777.233 284.099)" fill="#D9D9D9"/>
<circle cx="603" cy="310" r="3" fill="#D9D9D9"/>
<circle cx="41" cy="620" r="3" fill="#D9D9D9"/>
<circle cx="539" cy="632" r="3" fill="#D9D9D9"/>
<circle cx="947" cy="513" r="3" fill="#D9D9D9"/>
<circle cx="879" cy="732" r="3" fill="#D9D9D9"/>
<circle cx="231" cy="329" r="3" fill="#D9D9D9"/>
<circle cx="567" cy="357" r="3" fill="#D9D9D9"/>
<circle cx="93" cy="84" r="3" fill="#D9D9D9"/>
<circle cx="1053" cy="35" r="3" fill="#D9D9D9"/>
<circle cx="708" cy="14" r="3" fill="#D9D9D9"/>
<circle cx="260" cy="446" r="3" fill="#D9D9D9"/>
<circle cx="378" cy="82" r="3" fill="#D9D9D9"/>
<circle cx="285" cy="196" r="3" fill="#D9D9D9"/>
<circle cx="319.014" cy="520.69" r="3" transform="rotate(41.0935 319.014 520.69)" fill="#D9D9D9"/>
<circle cx="244" cy="317" r="3" fill="#D9D9D9"/>
<circle cx="606" cy="148" r="3" fill="#D9D9D9"/>
<circle cx="532" cy="248" r="3" fill="#D9D9D9"/>
<circle cx="291.014" cy="619.69" r="3" transform="rotate(41.0935 291.014 619.69)" fill="#D9D9D9"/>
<circle cx="927.014" cy="449.69" r="3" transform="rotate(41.0935 927.014 449.69)" fill="#D9D9D9"/>
<circle cx="365.014" cy="759.69" r="3" transform="rotate(41.0935 365.014 759.69)" fill="#D9D9D9"/>
<circle cx="863.014" cy="771.69" r="3" transform="rotate(41.0935 863.014 771.69)" fill="#D9D9D9"/>
<circle cx="1271.01" cy="652.69" r="3" transform="rotate(41.0935 1271.01 652.69)" fill="#D9D9D9"/>
<circle cx="555.014" cy="468.69" r="3" transform="rotate(41.0935 555.014 468.69)" fill="#D9D9D9"/>
<circle cx="891.014" cy="496.69" r="3" transform="rotate(41.0935 891.014 496.69)" fill="#D9D9D9"/>
<circle cx="417.014" cy="223.69" r="3" transform="rotate(41.0935 417.014 223.69)" fill="#D9D9D9"/>
<circle cx="1377.01" cy="174.69" r="3" transform="rotate(41.0935 1377.01 174.69)" fill="#D9D9D9"/>
<circle cx="1032.01" cy="153.69" r="3" transform="rotate(41.0935 1032.01 153.69)" fill="#D9D9D9"/>
<circle cx="1283.01" cy="211.69" r="3" transform="rotate(41.0935 1283.01 211.69)" fill="#D9D9D9"/>
<circle cx="1201.01" cy="280.69" r="3" transform="rotate(41.0935 1201.01 280.69)" fill="#D9D9D9"/>
<circle cx="1094.01" cy="338.69" r="3" transform="rotate(41.0935 1094.01 338.69)" fill="#D9D9D9"/>
<circle cx="1066.01" cy="448.69" r="3" transform="rotate(41.0935 1066.01 448.69)" fill="#D9D9D9"/>
<circle cx="504.014" cy="758.69" r="3" transform="rotate(41.0935 504.014 758.69)" fill="#D9D9D9"/>
<circle cx="1002.01" cy="770.69" r="3" transform="rotate(41.0935 1002.01 770.69)" fill="#D9D9D9"/>
<circle cx="1410.01" cy="651.69" r="3" transform="rotate(41.0935 1410.01 651.69)" fill="#D9D9D9"/>
<circle cx="694.014" cy="467.69" r="3" transform="rotate(41.0935 694.014 467.69)" fill="#D9D9D9"/>
<circle cx="1030.01" cy="495.69" r="3" transform="rotate(41.0935 1030.01 495.69)" fill="#D9D9D9"/>
<circle cx="556.014" cy="222.69" r="3" transform="rotate(41.0935 556.014 222.69)" fill="#D9D9D9"/>
<circle cx="1171.01" cy="152.69" r="3" transform="rotate(41.0935 1171.01 152.69)" fill="#D9D9D9"/>
<circle cx="1434.01" cy="363.69" r="3" transform="rotate(41.0935 1434.01 363.69)" fill="#D9D9D9"/>
<circle cx="1343.01" cy="449.69" r="3" transform="rotate(41.0935 1343.01 449.69)" fill="#D9D9D9"/>
<circle cx="1383.01" cy="542.69" r="3" transform="rotate(41.0935 1383.01 542.69)" fill="#D9D9D9"/>
<circle cx="1022.01" cy="603.69" r="3" transform="rotate(41.0935 1022.01 603.69)" fill="#D9D9D9"/>
<circle cx="1366.01" cy="806.69" r="3" transform="rotate(41.0935 1366.01 806.69)" fill="#D9D9D9"/>
<circle cx="650.014" cy="622.69" r="3" transform="rotate(41.0935 650.014 622.69)" fill="#D9D9D9"/>
<circle cx="986.014" cy="650.69" r="3" transform="rotate(41.0935 986.014 650.69)" fill="#D9D9D9"/>
<circle cx="512.014" cy="377.69" r="3" transform="rotate(41.0935 512.014 377.69)" fill="#D9D9D9"/>
<circle cx="1127.01" cy="307.69" r="3" transform="rotate(41.0935 1127.01 307.69)" fill="#D9D9D9"/>
<circle cx="878.014" cy="666.69" r="3" transform="rotate(41.0935 878.014 666.69)" fill="#D9D9D9"/>
<circle cx="935" cy="144" r="3" fill="#D9D9D9"/>
<circle cx="815" cy="240" r="3" fill="#D9D9D9"/>
<circle cx="472" cy="376" r="3" fill="#D9D9D9"/>
<circle cx="217.614" cy="468.079" r="2" transform="rotate(41.0935 217.614 468.079)" fill="#D9D9D9"/>
<circle cx="267" cy="109" r="2" fill="#D9D9D9"/>
<circle cx="133" cy="344" r="2" fill="#D9D9D9"/>
<circle cx="495" cy="175" r="2" fill="#D9D9D9"/>
<circle cx="189.614" cy="567.079" r="2" transform="rotate(41.0935 189.614 567.079)" fill="#D9D9D9"/>
<circle cx="825.614" cy="397.079" r="2" transform="rotate(41.0935 825.614 397.079)" fill="#D9D9D9"/>
<circle cx="263.614" cy="707.079" r="2" transform="rotate(41.0935 263.614 707.079)" fill="#D9D9D9"/>
<circle cx="761.614" cy="719.079" r="2" transform="rotate(41.0935 761.614 719.079)" fill="#D9D9D9"/>
<circle cx="1169.61" cy="600.079" r="2" transform="rotate(41.0935 1169.61 600.079)" fill="#D9D9D9"/>
<circle cx="1101.61" cy="819.079" r="2" transform="rotate(41.0935 1101.61 819.079)" fill="#D9D9D9"/>
<circle cx="453.614" cy="416.079" r="2" transform="rotate(41.0935 453.614 416.079)" fill="#D9D9D9"/>
<circle cx="789.614" cy="444.079" r="2" transform="rotate(41.0935 789.614 444.079)" fill="#D9D9D9"/>
<circle cx="315.614" cy="171.079" r="2" transform="rotate(41.0935 315.614 171.079)" fill="#D9D9D9"/>
<circle cx="1275.61" cy="122.079" r="2" transform="rotate(41.0935 1275.61 122.079)" fill="#D9D9D9"/>
<circle cx="930.614" cy="101.079" r="2" transform="rotate(41.0935 930.614 101.079)" fill="#D9D9D9"/>
<circle cx="1181.61" cy="159.079" r="2" transform="rotate(41.0935 1181.61 159.079)" fill="#D9D9D9"/>
<circle cx="1099.61" cy="228.079" r="2" transform="rotate(41.0935 1099.61 228.079)" fill="#D9D9D9"/>
<circle cx="992.614" cy="286.079" r="2" transform="rotate(41.0935 992.614 286.079)" fill="#D9D9D9"/>
<circle cx="430.614" cy="596.079" r="2" transform="rotate(41.0935 430.614 596.079)" fill="#D9D9D9"/>
<circle cx="928.614" cy="608.079" r="2" transform="rotate(41.0935 928.614 608.079)" fill="#D9D9D9"/>
<circle cx="1336.61" cy="489.079" r="2" transform="rotate(41.0935 1336.61 489.079)" fill="#D9D9D9"/>
<circle cx="1268.61" cy="708.079" r="2" transform="rotate(41.0935 1268.61 708.079)" fill="#D9D9D9"/>
<circle cx="620.614" cy="305.079" r="2" transform="rotate(41.0935 620.614 305.079)" fill="#D9D9D9"/>
<circle cx="956.614" cy="333.079" r="2" transform="rotate(41.0935 956.614 333.079)" fill="#D9D9D9"/>
<circle cx="482.614" cy="60.0786" r="2" transform="rotate(41.0935 482.614 60.0786)" fill="#D9D9D9"/>
<circle cx="964.614" cy="396.079" r="2" transform="rotate(41.0935 964.614 396.079)" fill="#D9D9D9"/>
<circle cx="402.614" cy="706.079" r="2" transform="rotate(41.0935 402.614 706.079)" fill="#D9D9D9"/>
<circle cx="900.614" cy="718.079" r="2" transform="rotate(41.0935 900.614 718.079)" fill="#D9D9D9"/>
<circle cx="1308.61" cy="599.079" r="2" transform="rotate(41.0935 1308.61 599.079)" fill="#D9D9D9"/>
<circle cx="1240.61" cy="818.079" r="2" transform="rotate(41.0935 1240.61 818.079)" fill="#D9D9D9"/>
<circle cx="592.614" cy="415.079" r="2" transform="rotate(41.0935 592.614 415.079)" fill="#D9D9D9"/>
<circle cx="928.614" cy="443.079" r="2" transform="rotate(41.0935 928.614 443.079)" fill="#D9D9D9"/>
<circle cx="454.614" cy="170.079" r="2" transform="rotate(41.0935 454.614 170.079)" fill="#D9D9D9"/>
<circle cx="1414.61" cy="121.079" r="2" transform="rotate(41.0935 1414.61 121.079)" fill="#D9D9D9"/>
<circle cx="1069.61" cy="100.079" r="2" transform="rotate(41.0935 1069.61 100.079)" fill="#D9D9D9"/>
<circle cx="1332.61" cy="311.079" r="2" transform="rotate(41.0935 1332.61 311.079)" fill="#D9D9D9"/>
<circle cx="1241.61" cy="397.079" r="2" transform="rotate(41.0935 1241.61 397.079)" fill="#D9D9D9"/>
<circle cx="1281.61" cy="490.079" r="2" transform="rotate(41.0935 1281.61 490.079)" fill="#D9D9D9"/>
<circle cx="920.614" cy="551.079" r="2" transform="rotate(41.0935 920.614 551.079)" fill="#D9D9D9"/>
<circle cx="1264.61" cy="754.079" r="2" transform="rotate(41.0935 1264.61 754.079)" fill="#D9D9D9"/>
<circle cx="548.614" cy="570.079" r="2" transform="rotate(41.0935 548.614 570.079)" fill="#D9D9D9"/>
<circle cx="884.614" cy="598.079" r="2" transform="rotate(41.0935 884.614 598.079)" fill="#D9D9D9"/>
<circle cx="410.614" cy="325.079" r="2" transform="rotate(41.0935 410.614 325.079)" fill="#D9D9D9"/>
<circle cx="1370.61" cy="276.079" r="2" transform="rotate(41.0935 1370.61 276.079)" fill="#D9D9D9"/>
<circle cx="1025.61" cy="255.079" r="2" transform="rotate(41.0935 1025.61 255.079)" fill="#D9D9D9"/>
<circle cx="776.614" cy="614.079" r="2" transform="rotate(41.0935 776.614 614.079)" fill="#D9D9D9"/>
<circle cx="1120.61" cy="817.079" r="2" transform="rotate(41.0935 1120.61 817.079)" fill="#D9D9D9"/>
<circle cx="404.614" cy="633.079" r="2" transform="rotate(41.0935 404.614 633.079)" fill="#D9D9D9"/>
<circle cx="740.614" cy="661.079" r="2" transform="rotate(41.0935 740.614 661.079)" fill="#D9D9D9"/>
<circle cx="266.614" cy="388.079" r="2" transform="rotate(41.0935 266.614 388.079)" fill="#D9D9D9"/>
<circle cx="1226.61" cy="339.079" r="2" transform="rotate(41.0935 1226.61 339.079)" fill="#D9D9D9"/>
<circle cx="881.614" cy="318.079" r="2" transform="rotate(41.0935 881.614 318.079)" fill="#D9D9D9"/>
<circle cx="421" cy="275" r="2" fill="#D9D9D9"/>
<circle cx="824" cy="171" r="2" fill="#D9D9D9"/>
<circle cx="288.246" cy="516.412" r="2" transform="rotate(41.0935 288.246 516.412)" fill="#D9D9D9"/>
<circle cx="704" cy="267" r="2" fill="#D9D9D9"/>
<circle cx="142" cy="577" r="2" fill="#D9D9D9"/>
<circle cx="640" cy="589" r="2" fill="#D9D9D9"/>
<circle cx="1048" cy="470" r="2" fill="#D9D9D9"/>
<circle cx="980" cy="689" r="2" fill="#D9D9D9"/>
<circle cx="332" cy="286" r="2" fill="#D9D9D9"/>
<circle cx="668" cy="314" r="2" fill="#D9D9D9"/>
<circle cx="194" cy="41" r="2" fill="#D9D9D9"/>
<circle cx="361" cy="403" r="2" fill="#D9D9D9"/>
<circle cx="352" cy="99" r="2" fill="#D9D9D9"/>
<circle cx="259" cy="213" r="2" fill="#D9D9D9"/>
<circle cx="218" cy="334" r="2" fill="#D9D9D9"/>
<circle cx="260.246" cy="615.412" r="2" transform="rotate(41.0935 260.246 615.412)" fill="#D9D9D9"/>
<circle cx="896.246" cy="445.412" r="2" transform="rotate(41.0935 896.246 445.412)" fill="#D9D9D9"/>
<circle cx="334.246" cy="755.412" r="2" transform="rotate(41.0935 334.246 755.412)" fill="#D9D9D9"/>
<circle cx="832.246" cy="767.412" r="2" transform="rotate(41.0935 832.246 767.412)" fill="#D9D9D9"/>
<circle cx="1240.25" cy="648.412" r="2" transform="rotate(41.0935 1240.25 648.412)" fill="#D9D9D9"/>
<circle cx="524.246" cy="464.412" r="2" transform="rotate(41.0935 524.246 464.412)" fill="#D9D9D9"/>
<circle cx="860.246" cy="492.412" r="2" transform="rotate(41.0935 860.246 492.412)" fill="#D9D9D9"/>
<circle cx="386.246" cy="219.412" r="2" transform="rotate(41.0935 386.246 219.412)" fill="#D9D9D9"/>
<circle cx="1346.25" cy="170.412" r="2" transform="rotate(41.0935 1346.25 170.412)" fill="#D9D9D9"/>
<circle cx="1001.25" cy="149.412" r="2" transform="rotate(41.0935 1001.25 149.412)" fill="#D9D9D9"/>
<circle cx="1252.25" cy="207.412" r="2" transform="rotate(41.0935 1252.25 207.412)" fill="#D9D9D9"/>
<circle cx="1170.25" cy="276.412" r="2" transform="rotate(41.0935 1170.25 276.412)" fill="#D9D9D9"/>
<circle cx="1063.25" cy="334.412" r="2" transform="rotate(41.0935 1063.25 334.412)" fill="#D9D9D9"/>
<circle cx="501.246" cy="644.412" r="2" transform="rotate(41.0935 501.246 644.412)" fill="#D9D9D9"/>
<circle cx="999.246" cy="656.412" r="2" transform="rotate(41.0935 999.246 656.412)" fill="#D9D9D9"/>
<circle cx="1407.25" cy="537.412" r="2" transform="rotate(41.0935 1407.25 537.412)" fill="#D9D9D9"/>
<circle cx="1339.25" cy="756.412" r="2" transform="rotate(41.0935 1339.25 756.412)" fill="#D9D9D9"/>
<circle cx="691.246" cy="353.412" r="2" transform="rotate(41.0935 691.246 353.412)" fill="#D9D9D9"/>
<circle cx="1027.25" cy="381.412" r="2" transform="rotate(41.0935 1027.25 381.412)" fill="#D9D9D9"/>
<circle cx="553.246" cy="108.412" r="2" transform="rotate(41.0935 553.246 108.412)" fill="#D9D9D9"/>
<circle cx="1168.25" cy="38.4119" r="2" transform="rotate(41.0935 1168.25 38.4119)" fill="#D9D9D9"/>
<circle cx="1035.25" cy="444.412" r="2" transform="rotate(41.0935 1035.25 444.412)" fill="#D9D9D9"/>
<circle cx="473.246" cy="754.412" r="2" transform="rotate(41.0935 473.246 754.412)" fill="#D9D9D9"/>
<circle cx="971.246" cy="766.412" r="2" transform="rotate(41.0935 971.246 766.412)" fill="#D9D9D9"/>
<circle cx="1379.25" cy="647.412" r="2" transform="rotate(41.0935 1379.25 647.412)" fill="#D9D9D9"/>
<circle cx="663.246" cy="463.412" r="2" transform="rotate(41.0935 663.246 463.412)" fill="#D9D9D9"/>
<circle cx="999.246" cy="491.412" r="2" transform="rotate(41.0935 999.246 491.412)" fill="#D9D9D9"/>
<circle cx="525.246" cy="218.412" r="2" transform="rotate(41.0935 525.246 218.412)" fill="#D9D9D9"/>
<circle cx="1140.25" cy="148.412" r="2" transform="rotate(41.0935 1140.25 148.412)" fill="#D9D9D9"/>
<circle cx="1403.25" cy="359.412" r="2" transform="rotate(41.0935 1403.25 359.412)" fill="#D9D9D9"/>
<circle cx="1312.25" cy="445.412" r="2" transform="rotate(41.0935 1312.25 445.412)" fill="#D9D9D9"/>
<circle cx="1352.25" cy="538.412" r="2" transform="rotate(41.0935 1352.25 538.412)" fill="#D9D9D9"/>
<circle cx="991.246" cy="599.412" r="2" transform="rotate(41.0935 991.246 599.412)" fill="#D9D9D9"/>
<circle cx="1335.25" cy="802.412" r="2" transform="rotate(41.0935 1335.25 802.412)" fill="#D9D9D9"/>
<circle cx="619.246" cy="618.412" r="2" transform="rotate(41.0935 619.246 618.412)" fill="#D9D9D9"/>
<circle cx="955.246" cy="646.412" r="2" transform="rotate(41.0935 955.246 646.412)" fill="#D9D9D9"/>
<circle cx="481.246" cy="373.412" r="2" transform="rotate(41.0935 481.246 373.412)" fill="#D9D9D9"/>
<circle cx="1096.25" cy="303.412" r="2" transform="rotate(41.0935 1096.25 303.412)" fill="#D9D9D9"/>
<circle cx="847.246" cy="662.412" r="2" transform="rotate(41.0935 847.246 662.412)" fill="#D9D9D9"/>
<circle cx="580" cy="165" r="2" fill="#D9D9D9"/>
<circle cx="506" cy="265" r="2" fill="#D9D9D9"/>
<circle cx="909" cy="161" r="2" fill="#D9D9D9"/>
<circle cx="789" cy="257" r="2" fill="#D9D9D9"/>
<circle cx="446" cy="393" r="2" fill="#D9D9D9"/>
<circle cx="67" cy="73" r="3" fill="#D9D9D9"/>
<circle cx="103" cy="86" r="3" fill="#D9D9D9"/>
<circle cx="35" cy="114" r="3" fill="#D9D9D9"/>
<circle cx="247" cy="44" r="3" fill="#D9D9D9"/>
<circle cx="136" cy="71" r="2" fill="#D9D9D9"/>
<circle cx="221" cy="61" r="2" fill="#D9D9D9"/>
</svg>
