<svg width="22" height="19" viewBox="0 0 22 19" fill="none" xmlns="http://www.w3.org/2000/svg">
<path d="M9.70234 18.4829L9.59492 18.383L2.0668 11.3136C0.747656 10.0753 0 8.33723 0 6.51665V6.37326C0 3.31434 2.14844 0.689923 5.12187 0.116375C6.81484 -0.213849 8.54648 0.181551 9.92578 1.16353C10.3125 1.44162 10.6734 1.76315 11 2.13248C11.1805 1.92392 11.3738 1.73274 11.5801 1.55459C11.7391 1.41555 11.9023 1.2852 12.0742 1.16353C13.4535 0.181551 15.1852 -0.213849 16.8781 0.11203C19.8516 0.685578 22 3.31434 22 6.37326V6.51665C22 8.33723 21.2523 10.0753 19.9332 11.3136L12.4051 18.383L12.2977 18.4829C11.9453 18.8132 11.4812 19 11 19C10.5188 19 10.0547 18.8175 9.70234 18.4829ZM10.2738 4.43971C10.2566 4.42667 10.2438 4.40929 10.2309 4.39191L9.46602 3.5229L9.46172 3.51856C8.46914 2.39319 6.96953 1.88047 5.50859 2.1629C3.50625 2.54961 2.0625 4.3137 2.0625 6.37326V6.51665C2.0625 7.75499 2.57383 8.94119 3.47188 9.78413L11 16.8535L18.5281 9.78413C19.4262 8.94119 19.9375 7.75499 19.9375 6.51665V6.37326C19.9375 4.31805 18.4937 2.54961 16.4957 2.1629C15.0348 1.88047 13.5309 2.39753 12.5426 3.51856C12.5426 3.51856 12.5426 3.51856 12.5383 3.5229C12.534 3.52725 12.5383 3.5229 12.534 3.52725L11.7691 4.39626C11.7562 4.41364 11.7391 4.42667 11.7262 4.44405C11.5328 4.63958 11.2707 4.74821 11 4.74821C10.7293 4.74821 10.4672 4.63958 10.2738 4.44405V4.43971Z" fill="white"/>
</svg>
