<svg width="217" height="92" viewBox="0 0 217 92" fill="none" xmlns="http://www.w3.org/2000/svg">
<path d="M116.939 4.47145C115.54 4.59101 112.744 4.75839 110.694 4.85404C106.571 5.04533 106.258 5.1888 107.536 6.28873C109.609 8.03429 109.633 8.0582 110.043 10.1146C110.26 11.1906 110.429 12.6492 110.429 13.3427C110.429 14.0122 110.574 15.8295 110.766 17.3359C110.959 18.8423 111.249 21.2574 111.393 22.716C111.61 25.0594 111.586 25.3702 111.249 25.6332C110.959 25.8485 110.718 25.8485 110.381 25.6811C110.14 25.5615 109.826 25.5137 109.681 25.6093C109.392 25.7767 109.513 27.9766 110.067 32.6394C110.26 34.2893 110.598 37.1826 110.791 39.0955C111.008 41.0084 111.345 43.9496 111.538 45.6712C111.755 47.3689 111.9 49.0906 111.851 49.4971C111.755 50.1666 111.707 50.2144 110.815 50.1427L109.874 50.047L110.043 50.9796C110.14 51.4817 110.308 52.8447 110.429 54.0403C110.525 55.2119 110.742 57.101 110.887 58.2248C111.032 59.3487 111.297 61.7159 111.49 63.4854C112.623 73.8391 113.202 78.9562 113.587 82.1364C113.708 83.2603 113.901 85.1732 114.021 86.3927C114.238 88.6882 114.431 89.3099 114.624 88.3296C114.769 87.5166 115.251 80.6061 115.492 75.5129C115.709 71.4001 116.023 69.1524 116.481 68.6503C116.601 68.5068 116.987 68.6981 117.421 69.1046C118.048 69.7024 118.217 69.7502 118.41 69.4633C118.578 69.2242 118.627 65.0396 118.578 57.2923C118.53 49.5688 118.578 45.456 118.747 45.4082C118.892 45.3603 119.205 45.7668 119.471 46.3407C120.363 48.2297 120.845 48.9471 121.11 48.6841C121.255 48.5406 121.207 45.7429 120.941 40.6498C120.724 36.3696 120.604 32.735 120.7 32.6154C120.869 32.3285 122.002 33.285 122.002 33.7393C122.002 34.2653 123.232 35.5088 123.762 35.5088C124.462 35.5088 127.451 34.8631 128.512 34.5045C128.994 34.3371 129.935 33.7871 130.61 33.285C132.008 32.2807 132.249 32.2329 133.069 32.8546C133.624 33.285 133.672 33.4524 133.841 37.2065C134.323 47.0342 134.444 48.3493 134.998 49.1145C135.746 50.1427 139.001 53.0838 140.64 54.2077C142.231 55.2837 142.834 55.3315 145.052 54.4707C147.994 53.3229 151.683 51.1709 152.141 50.334C152.696 49.3058 152.31 31.6829 151.683 29.3396C151.201 27.5701 146.186 23.5529 144.45 23.5529C143.606 23.5529 137.723 26.4941 135.914 27.8092C134.926 28.5505 134.492 29.0526 134.371 29.5548C134.178 30.5351 133.913 30.6069 133.19 29.8895C132.635 29.3396 132.587 29.1483 132.708 28.0244C132.804 27.3549 132.973 24.1746 133.093 21.0183C133.383 14.2274 133.383 14.2513 131.092 11.1428C130.248 10.019 128.946 8.17776 128.199 7.05391C126.366 4.28016 126.125 4.18452 122.436 4.20843C120.821 4.23234 118.337 4.3519 116.939 4.47145ZM123.883 8.0582C124.1 8.34514 124.51 14.7774 124.823 23.003L124.968 26.9006L124.148 27.2353C123.015 27.6896 120.893 27.9527 120.7 27.6418C120.604 27.5223 120.435 23.1464 120.29 17.9337C120.073 10.4972 120.073 8.41687 120.314 8.12994C120.7 7.67561 123.521 7.62779 123.883 8.0582ZM143.027 27.8809C142.907 28.67 141.363 30.4873 140.785 30.4873C139.917 30.4873 140.23 29.4352 141.484 28.2396C142.69 27.0679 143.148 26.9484 143.027 27.8809ZM124.172 30.4634C124.341 30.7982 124.341 31.1329 124.172 31.5872C123.931 32.2089 123.907 32.2089 123.377 31.7785C122.002 30.6069 121.906 30.0091 123.087 30.0091C123.666 30.0091 123.979 30.1525 124.172 30.4634ZM144.667 33.4045C145.101 35.5805 145.294 50.6926 144.908 51.41C144.739 51.7208 144.184 52.1513 143.678 52.3904C142.786 52.773 142.714 52.773 142.256 52.3665C140.881 51.1231 140.881 51.1231 140.712 41.8214C140.568 34.1697 140.592 33.1415 140.929 32.8785C141.267 32.6154 143.316 31.9937 144.088 31.9459C144.257 31.922 144.498 32.5915 144.667 33.4045Z" fill="white"/>
<path d="M82.0983 9.73204C81.8331 9.87551 81.5679 10.0668 81.4956 10.1624C81.2544 10.4972 76.1911 16.1643 75.9741 16.3795C75.9018 16.4512 75.6124 16.7381 75.3713 17.049C74.9132 17.5751 74.9132 17.599 75.3713 17.9098C75.9018 18.2924 75.8777 17.8142 75.7812 36.25L75.7089 46.1973L74.6962 47.3211C73.5389 48.6602 73.7077 48.9949 75.4437 48.7797C76.0223 48.708 78.2647 48.6602 80.4347 48.6602C82.7493 48.6602 84.3889 48.5645 84.3889 48.445C84.3889 48.3015 84.0754 47.8472 83.6656 47.4168L82.9422 46.6516V32.7111C82.9422 21.1618 82.9904 18.7706 83.2798 18.7706C84.0272 18.7706 84.7747 23.8638 84.3166 25.9919C84.1478 26.7571 84.196 26.9006 84.5094 26.9006C85.064 26.9006 90.8989 21.9031 90.8989 21.4248C90.8989 21.0422 90.272 19.0337 89.5969 17.2164C88.8494 15.2317 87.7644 13.271 87.3787 13.271C87.017 13.271 86.0526 13.7014 85.8356 13.9644C85.4739 14.3948 83.4244 15.9012 83.2074 15.9012C83.0387 15.9012 82.9422 14.9209 82.9422 12.9601C82.9422 9.73204 82.8217 9.34945 82.0983 9.73204Z" fill="white"/>
<path d="M159.447 11.7645C158.772 12.5297 156.385 15.0165 154.094 17.312C151.828 19.6075 149.971 21.5444 149.971 21.64C149.971 21.7357 150.791 21.8791 151.804 21.9269C152.792 21.9987 153.708 22.1422 153.829 22.2617C153.925 22.3813 154.142 29.8895 154.311 38.9759L154.6 55.475L155.227 55.9532C156.553 56.9814 162.822 60.616 163.28 60.616C163.522 60.616 163.787 60.4486 163.883 60.2095C164.004 59.9464 163.618 59.4443 162.581 58.4878C161.786 57.7466 161.062 56.8858 160.99 56.5988C160.821 55.9054 161.231 27.0919 161.448 24.1986C161.617 21.7596 161.858 21.4009 163.329 21.4009C164.534 21.4009 164.92 21.09 164.92 20.1097C164.92 18.9141 164.607 18.6511 162.943 18.5315L161.424 18.4119L161.376 14.9447C161.303 11.358 161.207 10.4015 160.845 10.4015C160.749 10.4015 160.098 11.0232 159.447 11.7645Z" fill="white"/>
<path d="M32.2607 10.9754C30.1871 11.1189 28.4029 11.3102 28.3064 11.4297C28.21 11.5254 28.4029 11.908 28.7404 12.2667C30.2353 13.8687 30.1389 13.0079 30.1389 25.8485V37.5891L29.4879 38.0912C29.1021 38.3542 28.3788 38.9281 27.8483 39.3346C25.823 40.865 23.3154 42.4431 22.8814 42.4431C22.6162 42.4431 22.3751 42.2279 22.3028 41.8932C22.2063 41.5823 22.1822 35.9631 22.2304 29.3874C22.3028 16.7381 22.2787 17.0012 23.4601 15.7338C23.7253 15.423 23.9182 15.1361 23.8459 15.0882C23.6771 14.8969 12.0797 14.8491 11.8868 15.0165C11.7903 15.1121 12.1279 15.5904 12.6101 16.0925L13.5022 17.0012V30.296C13.5022 37.6608 13.4058 43.6626 13.2852 43.7344C13.0682 43.8778 10.7294 42.204 8.94522 40.6019C8.00489 39.7889 7.90844 39.6216 8.14955 39.1672C8.31833 38.8803 8.87289 38.3303 9.40333 37.8999C10.5366 37.0152 10.633 36.6087 9.71678 36.8C9.331 36.8717 8.36655 36.9913 7.52267 37.0869C5.88311 37.2543 5.06333 37.8043 5.06333 38.7129C5.06333 39.3585 5.97955 40.9367 7.161 42.3475C8.05311 43.4474 11.2358 46.0299 12.7307 46.8907L13.5022 47.3211L13.5746 53.2034C13.5987 56.4314 13.6228 60.329 13.6228 61.8833V64.7288L12.3449 65.8287C11.6216 66.4504 11.1393 67.0482 11.2358 67.1438C11.3322 67.2395 11.935 67.3112 12.5619 67.3112C13.2129 67.3112 14.9007 67.4547 16.3232 67.646C19.7711 68.1003 24.0388 68.3394 24.2076 68.0764C24.2799 67.9568 23.8459 67.3591 23.2913 66.7374L22.2304 65.6135L22.2063 56.4314L22.1581 47.2733L22.7127 46.8907C23.002 46.6755 23.5566 46.5081 23.9182 46.5081C24.304 46.5081 24.7862 46.4125 25.0273 46.2929C25.2443 46.1733 25.9918 45.8147 26.6428 45.5277C27.3179 45.2408 28.2582 44.6669 28.7646 44.2843C29.3432 43.83 29.7772 43.6626 29.9219 43.8061C30.0666 43.9496 30.1148 48.3493 30.0666 55.2598C29.9942 67.6938 30.0666 67.1438 28.3306 69.4394C27.8001 70.1567 27.2697 70.8741 27.125 71.0414C27.0044 71.2088 26.9803 71.424 27.0768 71.5436C27.2697 71.7349 41.23 72.3327 41.5434 72.1653C41.881 71.974 41.7122 71.6153 40.6513 70.2524C38.6742 67.6221 38.8189 69.1046 38.8189 52.4143V37.5173L39.5904 36.9195C40.8683 35.9631 41.3023 35.7718 42.1462 35.7479C43.0866 35.7479 43.1107 35.9631 42.2909 36.7283C41.1336 37.7804 40.2656 39.1433 40.2656 39.9085C40.2656 40.315 40.4102 41.391 40.6031 42.3236C40.8201 43.2322 41.1336 44.8582 41.3506 45.9103C41.8087 48.0863 42.4356 50.9796 42.6043 51.5774C42.6526 51.8165 43.0866 52.3665 43.5206 52.8447C44.2921 53.6338 44.4127 53.6577 45.4977 53.5381C46.1246 53.4425 47.2337 53.0838 47.9088 52.7012C49.5483 51.8165 49.9582 51.8165 50.6574 52.8447C51.8148 54.5185 53.7919 54.2077 55.6243 52.0556C56.2512 51.3144 57.4327 49.9992 58.2042 49.1623C59.6027 47.6559 59.6268 47.632 59.0722 47.345C58.1078 46.8429 57.7943 45.6712 57.6256 41.9649C56.9746 28.9331 56.8781 27.4984 56.4682 26.6615C55.9619 25.6093 54.9733 24.2942 53.3097 22.4769C52.6104 21.6878 51.5737 20.5162 51.0432 19.8466C49.2831 17.6229 48.5839 17.575 44.9913 19.3684C40.362 21.6639 39.7592 22.7878 41.3506 25.968C42.7972 28.8613 43.617 29.9852 44.2921 30.0091C44.5573 30.0091 45.353 28.8135 45.3289 28.4548C45.3048 27.4505 45.4736 27.1158 46.9202 25.7767C47.9329 24.8203 48.6803 24.2703 49.042 24.2703C50.0788 24.2703 50.1752 25.3941 50.3199 37.4217C50.4404 47.4646 50.4163 48.5884 50.0547 48.8754C49.7653 49.1145 49.5724 49.1384 49.3554 48.9232C48.6803 48.3732 47.5953 38.3064 48.0534 36.7043C48.174 36.25 48.608 35.4609 49.0179 34.9588C49.5966 34.1936 49.693 33.9784 49.4037 33.811C49.2108 33.6915 46.7997 33.5958 44.0028 33.6197L38.9394 33.6437L38.7707 27.4745C38.6742 24.0551 38.6501 19.6075 38.7466 17.575L38.8912 13.8687L39.9521 12.4819C40.5308 11.7167 40.9407 10.9993 40.8683 10.8798C40.6754 10.5928 37.2758 10.6407 32.2607 10.9754Z" fill="white"/>
<path d="M64.7866 13.4383C64.3284 13.8209 63.0506 14.8013 61.9656 15.6621C60.8806 16.5229 59.3374 17.7424 58.5177 18.3641C57.6979 19.0097 57.0228 19.6553 57.0228 19.7988C57.0228 19.9662 57.5291 20.1097 58.2524 20.1575C60.543 20.277 60.3742 19.201 60.4707 35.174L60.5671 49.1384L59.8197 49.9753C59.4098 50.4535 59.0722 50.9318 59.0722 51.0752C59.0722 51.2426 59.7956 51.2904 61.3146 51.1948C62.5201 51.123 64.9071 51.0035 66.619 50.9078C68.3068 50.8361 69.7293 50.6687 69.8017 50.5731C69.874 50.4774 69.6329 50.2144 69.2953 49.9753C68.1621 49.234 68.0174 48.4689 67.7522 41.1041C67.6076 37.3021 67.3906 33.0698 67.27 31.6829C66.9324 27.8092 66.9566 22.7639 67.3423 22.8834C67.487 22.9551 67.704 23.529 67.7763 24.1746C67.8728 24.8203 68.0416 25.7767 68.2103 26.3028C68.355 26.8288 68.4756 27.9766 68.4756 28.8613C68.4756 29.9134 68.572 30.4873 68.7408 30.4873C68.8854 30.4873 69.8499 29.8895 70.8626 29.1722C71.8752 28.4309 73.1531 27.5223 73.7318 27.1397C74.8891 26.3267 74.9373 26.0158 74.4069 23.5529C73.9729 21.6639 73.5871 20.564 72.478 18.2206C71.3448 15.8056 70.7179 15.6382 68.6443 17.1207C68.1139 17.5033 67.4388 17.8141 67.1494 17.8141C66.6431 17.8141 66.5949 17.6707 66.402 15.3752C66.2814 14.0361 66.0644 12.9123 65.9198 12.8644C65.7751 12.8166 65.2688 13.0796 64.7866 13.4383Z" fill="white"/>
<path d="M171.334 13.3188C171.141 13.6296 170.2 15.1599 169.26 16.7142C167.428 19.751 165.909 21.8313 164.341 23.5051C162.654 25.2746 162.581 25.9441 164.052 25.9441C165.667 25.9441 165.595 25.3463 165.884 42.3236C166.077 52.8447 166.222 57.6987 166.415 57.9379C166.56 58.1052 167.283 58.5117 168.03 58.8465C168.778 59.2052 170.032 59.7551 170.827 60.1377C174.95 62.0267 175.722 62.3615 176.493 62.7202C176.951 62.9115 177.627 63.2223 177.988 63.4136C179.483 64.1549 180.231 63.7245 181.967 61.1181C182.449 60.3768 183.148 59.4921 183.534 59.1334C183.895 58.7748 184.209 58.3922 184.209 58.2726C184.209 58.1531 182.931 57.9857 181.388 57.9139C179.821 57.8183 177.747 57.6748 176.807 57.6031C175.698 57.5074 175.047 57.5314 175.047 57.6748C175.047 57.9857 177.289 58.703 178.278 58.703C179.483 58.703 179.748 58.99 179.314 59.803C179.121 60.1856 178.736 60.6877 178.47 60.9268C177.988 61.3572 177.94 61.3572 176.373 60.592C175.505 60.1616 174.468 59.516 174.082 59.1813L173.407 58.5835L173.238 42.6583C173.094 28.5744 173.118 26.7093 173.431 26.3745C173.648 26.1832 174.468 25.9441 175.288 25.8724C176.108 25.7767 176.879 25.6572 177 25.5615C177.361 25.3463 177.241 23.8638 176.831 23.4573C176.566 23.1943 176.011 23.0747 174.95 23.0747C174.01 23.0747 173.311 22.9551 173.166 22.7638C173.045 22.6204 172.853 20.3009 172.756 17.6228C172.587 13.1275 172.539 12.7927 172.129 12.7927C171.888 12.7927 171.526 13.0318 171.334 13.3188Z" fill="white"/>
<path d="M197.639 21.903C195.421 24.1507 193.66 26.0876 193.757 26.2071C193.829 26.3267 194.094 26.4223 194.336 26.4223C194.601 26.4223 194.938 26.6614 195.083 26.9484C195.469 27.6657 195.734 34.4327 195.758 44.2843L195.782 51.96L194.987 53.0121C194.553 53.562 193.926 54.1598 193.612 54.3272C192.19 55.0446 193.009 55.3793 198.073 56.2162C199.399 56.4314 201.231 56.7423 202.148 56.9336C203.064 57.1249 204.076 57.2683 204.414 57.2683C204.752 57.2683 205.74 57.4357 206.584 57.6509C207.621 57.9139 208.199 57.9618 208.368 57.7944C208.609 57.5553 208.537 57.5075 206.343 56.3836C205.764 56.0728 204.92 55.475 204.486 55.0446C203.739 54.2555 203.691 54.112 203.474 51.5056C203.353 49.9992 203.184 43.6387 203.088 37.326C202.991 28.2874 203.016 25.8963 203.257 25.9919C203.425 26.0397 203.691 26.4462 203.859 26.9006C204.004 27.3549 204.39 28.407 204.679 29.22L205.21 30.6786L204.486 31.9937C204.076 32.6872 203.811 33.3567 203.908 33.4284C203.98 33.5241 204.39 33.5958 204.8 33.5958C205.547 33.5719 205.909 33.3089 210.321 29.2917C211.286 28.407 211.647 27.2114 211.237 26.3028C210.442 24.5572 208.585 20.9226 208.224 20.3727C207.645 19.5119 207.114 19.5597 204.993 20.5879C203.932 21.1139 203.136 21.377 202.991 21.2335C202.871 21.1139 202.63 20.3488 202.461 19.488C202.292 18.651 202.051 17.9337 201.906 17.8859C201.762 17.8381 199.857 19.6553 197.639 21.903Z" fill="white"/>
<path d="M183.968 21.3292C182.883 21.7596 177.458 26.7332 176.855 27.8809C176.59 28.3592 176.469 30.583 176.349 37.3739L176.18 46.2451L177.361 47.632C178.929 49.4971 180.279 50.9796 181.388 52.0556L182.304 52.9643H184.788C187.657 52.9643 187.464 53.0838 189.875 49.7362C191.924 46.8907 191.9 47.0581 190.743 45.1691C189.272 42.754 188.862 42.2758 188.549 42.6105C188.26 42.8735 187.584 45.0734 187.102 47.2255C186.572 49.5688 186.186 50.6926 185.921 50.6687C185.776 50.6448 185.559 50.6209 185.463 50.597C185.342 50.597 184.884 50.0709 184.426 49.4253L183.606 48.3015L183.341 41.8453C183.124 36.2261 183.148 35.3414 183.437 35.1023C183.871 34.7436 184.088 34.7914 188.983 36.1305C190.984 36.6804 191.539 36.4652 192.768 34.6958C193.66 33.4284 193.733 33.1893 193.685 31.8264C193.66 31.0373 193.516 30.033 193.371 29.6504C193.202 29.2439 192.985 28.5505 192.889 28.0962C192.214 25.2507 191.418 24.3181 188.163 22.6682C185.728 21.4487 184.619 21.09 183.968 21.3292ZM185.125 25.2746C185.366 25.8485 185.776 26.781 185.993 27.3788C186.234 27.9766 186.572 28.7657 186.741 29.1722C187.657 31.3003 188.067 32.4242 188.067 32.9024C188.067 33.3806 187.97 33.4045 187.102 33.2611C186.572 33.1893 185.68 33.0459 185.125 32.9741C184.546 32.8785 183.944 32.7111 183.799 32.5676C183.365 32.2568 183.365 24.9637 183.775 24.5572C184.281 24.0551 184.643 24.2464 185.125 25.2746Z" fill="white"/>
<path d="M98.735 27.3549C98.6627 27.4984 98.8314 27.7136 99.0967 27.857C99.6753 28.1679 99.7477 29.483 99.2413 30.4395C99.0484 30.7982 98.735 31.5633 98.4939 32.1611C98.2769 32.7589 97.9393 33.548 97.7706 33.9545C97.6018 34.3371 97.3124 35.1022 97.0954 35.6283C95.6247 39.4542 94.9737 40.6497 94.7084 40.1237C94.5879 39.9085 93.9369 37.5651 93.4064 35.3892C93.1894 34.6001 92.876 33.4763 92.6831 32.8785C92.2491 31.4916 92.2491 31.0373 92.7554 30.7742C93.3582 30.4395 92.9724 29.6743 92.2732 29.8656C91.9839 29.9373 90.0791 30.0091 88.0779 30.0091C84.2924 30.0091 83.979 30.0808 84.7023 30.9416C85.0158 31.3003 85.4498 33.0458 86.1972 36.8239C86.6794 39.2629 87.2822 42.1084 87.6439 43.7583C87.8127 44.5473 88.1502 46.2451 88.3913 47.5124C88.8494 50.047 88.8977 49.784 87.5233 52.8447C84.9917 58.44 83.4968 61.4529 82.9904 61.8833C82.5082 62.3137 82.3394 62.3137 78.6746 61.955C76.5769 61.7637 73.3219 61.4768 71.4412 61.3333C69.5606 61.2138 67.8487 61.0225 67.6558 60.9507C67.1977 60.7833 67.1736 60.3051 67.5834 59.1813C68.1139 57.7227 68.7408 57.0531 70.2839 56.288C71.5859 55.6663 72.3092 55.0206 72.0199 54.7337C71.827 54.5185 65.4617 54.2076 64.9794 54.3989C63.8462 54.8293 61.0252 59.9943 61.4592 60.8073C61.9173 61.6442 62.6648 62.1702 65.0759 63.3658C70.1633 65.8765 73.5389 66.7852 79.8078 67.3351C81.2062 67.4547 83.0628 67.6221 83.9549 67.7177C85.6909 67.8612 86.149 67.6938 86.583 66.7134C86.7036 66.4504 87.1617 65.5896 87.5957 64.8005C88.0538 64.0114 89.0423 62.1702 89.8139 60.7355C90.5854 59.2769 91.4293 57.7227 91.6946 57.2683C91.9598 56.814 92.7796 55.3076 93.5029 53.9207C94.2503 52.5338 95.3594 50.4296 95.9863 49.2579C97.2401 46.9385 100.133 41.1519 100.688 39.8846C100.881 39.4542 101.194 38.7368 101.411 38.2586C101.604 37.8043 101.942 37.0152 102.159 36.5369C102.713 35.2457 103.051 34.4566 103.919 32.2807C104.353 31.2286 104.835 30.1047 105.004 29.77C105.173 29.4352 105.39 28.8374 105.462 28.407C105.607 27.7853 105.534 27.594 105.149 27.4027C104.57 27.0679 98.9279 27.044 98.735 27.3549Z" fill="white"/>
</svg>
